<svg id="Layer_1" data-name="Layer 1" xmlns="http://www.w3.org/2000/svg" viewBox="0 0 700 700"><defs><style>.cls-1{fill:none;stroke-width:0.75px;}.cls-1,.cls-2{stroke:#fff;stroke-miterlimit:10;}.cls-2,.cls-3{fill:#fff;}</style></defs><title>Artboard 1RESTORATION</title><polygon class="cls-1" points="500 90.19 200 90.19 50 350 200 609.81 500 609.81 650 350 500 90.19"/><polygon class="cls-1" points="350 50 90.19 200 90.19 500 350 650 609.81 500 609.81 200 350 50"/><polygon class="cls-1" points="350.5 50.5 90.5 500.5 609.5 500.5 350.5 50.5"/><polygon class="cls-1" points="349.5 649.5 90.5 200.5 609.5 200.5 349.5 649.5"/><polygon class="cls-1" points="200.5 90.5 200.5 609.5 649.5 349.5 200.5 90.5"/><polygon class="cls-1" points="500.5 90.5 49.5 349.5 500.5 609.5 500.5 90.5"/><polygon class="cls-1" points="49.5 349.5 349.5 349.5 200.5 609.5 49.5 349.5"/><polygon class="cls-1" points="649.5 349.5 349.5 349.5 500.5 609.5 649.5 349.5"/><polygon class="cls-1" points="349.5 349.5 200.5 90.5 49.5 349.5 349.5 349.5"/><polygon class="cls-1" points="500.5 90.5 349.5 349.5 649.5 349.5 500.5 90.5"/><circle class="cls-1" cx="350" cy="350" r="75"/><polyline class="cls-2" points="337.9 362.1 312.5 362.1 312.5 337.9 337.9 337.9"/><polyline class="cls-2" points="362.1 337.9 387.5 337.9 387.5 362.1 362.1 362.1"/><polyline class="cls-2" points="362.1 362.1 362.1 387.5 337.9 387.5 337.9 362.1"/><polyline class="cls-2" points="362.1 337.9 362.1 312.5 337.9 312.5 337.9 337.9"/><rect class="cls-3" x="337.5" y="337.5" width="25" height="25"/></svg>