<?xml version="1.0" encoding="utf-8"?>
<!-- Generator: Adobe Illustrator 22.0.0, SVG Export Plug-In . SVG Version: 6.00 Build 0)  -->
<svg version="1.1" id="Layer_1" xmlns="http://www.w3.org/2000/svg" xmlns:xlink="http://www.w3.org/1999/xlink" x="0px" y="0px"
	 viewBox="0 0 504 112.3" style="enable-background:new 0 0 504 112.3;" xml:space="preserve">
<style type="text/css">
	.st0{stroke:#000000;stroke-width:4;stroke-miterlimit:10;}
	.st1{fill:#FFFFFF;stroke:#000000;stroke-width:4;stroke-miterlimit:10;}
	.st2{fill:#FF3F3F;}
	.st3{fill:#FFFFFF;}
</style>
<title>Asset 14</title>
<polygon class="st0" points="502.4,80 389.9,80 389.9,58.9 502.4,58.6 "/>
<rect x="2" y="2" class="st1" width="500" height="58"/>
<g>
	<g>
		<path class="st2" d="M15.7,14.4H22v33.4h-6.3V14.4z M18.5,28.8h10.7c0.7,0,1.4-0.2,2-0.5c0.6-0.3,1-0.8,1.3-1.5
			c0.3-0.6,0.5-1.3,0.5-2.2c0-0.8-0.2-1.6-0.5-2.2s-0.8-1.1-1.3-1.5c-0.6-0.3-1.2-0.5-2-0.5H18.5v-6.1h10.5c2.1,0,3.9,0.4,5.5,1.3
			c1.6,0.8,2.8,2,3.7,3.6c0.9,1.5,1.3,3.3,1.3,5.4c0,2-0.4,3.8-1.3,5.4c-0.9,1.5-2.1,2.7-3.7,3.6c-1.6,0.8-3.4,1.3-5.5,1.3H18.5
			V28.8z"/>
		<path class="st2" d="M54.5,14.4h4l12.8,33.4h-6.8l-8-22.8l-8,22.8h-6.8L54.5,14.4z M47.8,36.4h17.6v6.1H47.8V36.4z"/>
		<path class="st2" d="M75.4,14.4h6.3v33.4h-6.3V14.4z M78.2,41.7h19.6v6.1H78.2V41.7z"/>
		<path class="st2" d="M111.9,14.4h4l12.8,33.4h-6.8l-8-22.8l-8,22.8h-6.8L111.9,14.4z M105.2,36.4h17.6v6.1h-17.6V36.4z"/>
		<path class="st2" d="M140.3,48.1c0,0-0.9-0.5-2.7-1.5c-1.8-1-3.2-2.4-4.1-4.2c-0.9-1.9-1.4-4.1-1.4-6.7v-9.2
			c0-2.6,0.5-4.9,1.4-6.7c0.9-1.9,2.3-3.3,4.1-4.3c1.8-1,4-1.5,6.5-1.5c2.1,0,4,0.5,5.6,1.4c1.7,0.9,3,2.2,4.1,3.9
			c1.1,1.7,1.8,3.8,2.2,6.2h-6.5c-0.2-1.1-0.6-2-1.1-2.8s-1.1-1.4-1.9-1.8c-0.7-0.4-1.5-0.6-2.4-0.6c-1.2,0-2.2,0.2-3,0.7
			c-0.8,0.5-1.5,1.2-1.9,2.1c-0.4,0.9-0.7,2-0.7,3.3v9.2c0,1.3,0.2,2.4,0.7,3.3c0.4,0.9,1.1,1.6,1.9,2.1c0.8,0.5,1.8,0.7,3,0.7
			c0.9,0,1.7-0.2,2.5-0.6s1.4-1,1.9-1.8s0.9-1.7,1.1-2.8h6.5c-0.4,2.4-1.2,4.5-2.3,6.2c-1.1,1.7-2.4,3-4.1,3.9
			c-1.6,0.9-3.5,1.4-5.6,1.4C141.6,48.1,140.3,48.1,140.3,48.1z"/>
		<path class="st2" d="M161.8,14.4h6.3v33.4h-6.3V14.4z M164.1,14.4h20.1v6.1h-20.1V14.4z M164.1,28.2h17.6v6.1h-17.6V28.2z
			 M164.1,41.7h20.1v6.1h-20.1V41.7z"/>
		<path class="st2" d="M197.9,14.4h6.3v33.4h-6.3V14.4z M200.4,28.3H212c0.6,0,1.2-0.2,1.7-0.5c0.5-0.3,0.9-0.8,1.1-1.4
			c0.3-0.6,0.4-1.3,0.4-2.1c0-0.8-0.1-1.5-0.4-2.1s-0.6-1.1-1.1-1.4c-0.5-0.3-1.1-0.5-1.7-0.5h-11.6v-6.1h12.1
			c1.8,0,3.4,0.4,4.8,1.2c1.4,0.8,2.5,2,3.2,3.5c0.8,1.5,1.1,3.3,1.1,5.2c0,2-0.4,3.7-1.1,5.2c-0.8,1.5-1.8,2.7-3.2,3.5
			c-1.4,0.8-3,1.2-4.8,1.2h-12.1V28.3z M207.5,33.3l6.7-1.1l9,15.5h-7.6L207.5,33.3z"/>
		<path class="st2" d="M233.7,46.7c-1.8-1-3.2-2.4-4.2-4.2c-0.9-1.9-1.4-4.1-1.4-6.7V14.4h6.3v21.5c0,1.9,0.5,3.4,1.5,4.5
			c1,1.1,2.5,1.6,4.3,1.6c1.9,0,3.3-0.5,4.4-1.6c1-1.1,1.5-2.5,1.5-4.5V14.4h6.3v21.3c0,2.6-0.5,4.9-1.4,6.7c-1,1.9-2.3,3.3-4.2,4.2
			c-1.8,1-4,1.5-6.6,1.5S235.5,47.7,233.7,46.7z"/>
		<path class="st2" d="M283.1,29.1v6.5c0,2.5-0.5,4.7-1.5,6.6c-1,1.9-2.4,3.4-4.3,4.4c-1.8,1-4,1.5-6.4,1.5c-2.4,0-4.6-0.5-6.4-1.5
			c-1.9-1-3.3-2.3-4.3-4.1c-1-1.8-1.5-3.8-1.5-6.2v-9.8c0-2.5,0.5-4.7,1.5-6.5s2.4-3.3,4.3-4.4c1.8-1,4-1.5,6.4-1.5
			c2,0,3.8,0.4,5.5,1.2c1.7,0.8,3.1,2,4.2,3.5c1.1,1.5,1.9,3.2,2.3,5.2H276c-0.2-0.7-0.6-1.3-1.1-1.8c-0.5-0.5-1.1-0.9-1.9-1.2
			c-0.7-0.3-1.4-0.4-2.2-0.4c-1.1,0-2.1,0.2-2.9,0.7c-0.8,0.5-1.5,1.2-2,2.1c-0.5,0.9-0.7,1.9-0.7,3.1v9.8c0,1,0.2,2,0.7,2.8
			c0.5,0.8,1.1,1.4,2,1.8c0.9,0.4,1.9,0.6,3,0.6c1.1,0,2.1-0.2,3-0.7c0.8-0.5,1.5-1.1,2-2c0.5-0.9,0.7-1.9,0.7-3.1v-0.6h-5v-6.1
			H283.1z"/>
		<path class="st2" d="M321.5,29.1v6.5c0,2.5-0.5,4.7-1.5,6.6c-1,1.9-2.4,3.4-4.3,4.4c-1.8,1-4,1.5-6.4,1.5c-2.4,0-4.6-0.5-6.4-1.5
			c-1.9-1-3.3-2.3-4.3-4.1c-1-1.8-1.5-3.8-1.5-6.2v-9.8c0-2.5,0.5-4.7,1.5-6.5s2.4-3.3,4.3-4.4c1.8-1,4-1.5,6.4-1.5
			c2,0,3.8,0.4,5.5,1.2c1.7,0.8,3.1,2,4.2,3.5c1.1,1.5,1.9,3.2,2.3,5.2h-6.8c-0.2-0.7-0.6-1.3-1.1-1.8c-0.5-0.5-1.1-0.9-1.9-1.2
			c-0.7-0.3-1.4-0.4-2.2-0.4c-1.1,0-2.1,0.2-2.9,0.7c-0.8,0.5-1.5,1.2-2,2.1c-0.5,0.9-0.7,1.9-0.7,3.1v9.8c0,1,0.2,2,0.7,2.8
			c0.5,0.8,1.1,1.4,2,1.8c0.9,0.4,1.9,0.6,3,0.6c1.1,0,2.1-0.2,3-0.7c0.8-0.5,1.5-1.1,2-2c0.5-0.9,0.7-1.9,0.7-3.1v-0.6h-5v-6.1
			H321.5z"/>
		<path class="st2" d="M337.7,14.4h4l12.8,33.4h-6.8l-8-22.8l-8,22.8H325L337.7,14.4z M331.1,36.4h17.6v6.1h-17.6V36.4z"/>
		<path class="st2" d="M358.6,14.4h6.3v33.4h-6.3V14.4z M361.4,41.7H381v6.1h-19.6V41.7z"/>
		<path class="st2" d="M385.5,14.4h6.3v33.4h-6.3V14.4z M388.3,41.7h19.6v6.1h-19.6V41.7z"/>
		<path class="st2" d="M412.5,14.4h6.3v33.4h-6.3V14.4z M414.8,14.4h20.1v6.1h-20.1V14.4z M414.8,28.2h17.6v6.1h-17.6V28.2z
			 M414.8,41.7h20.1v6.1h-20.1V41.7z"/>
		<path class="st2" d="M440.6,14.4h6.3v33.4h-6.3V14.4z M443.1,28.3h11.6c0.6,0,1.2-0.2,1.7-0.5c0.5-0.3,0.9-0.8,1.1-1.4
			c0.3-0.6,0.4-1.3,0.4-2.1c0-0.8-0.1-1.5-0.4-2.1s-0.6-1.1-1.1-1.4c-0.5-0.3-1.1-0.5-1.7-0.5h-11.6v-6.1h12.1
			c1.8,0,3.4,0.4,4.8,1.2c1.4,0.8,2.5,2,3.2,3.5c0.8,1.5,1.1,3.3,1.1,5.2c0,2-0.4,3.7-1.1,5.2c-0.8,1.5-1.8,2.7-3.2,3.5
			c-1.4,0.8-3,1.2-4.8,1.2h-12.1V28.3z M450.1,33.3l6.7-1.1l9,15.5h-7.6L450.1,33.3z"/>
		<path class="st2" d="M482.5,34.9v12.9h-6.3V34.9l-9.8-20.5h6.6l6.4,14.4l6.4-14.4h6.6L482.5,34.9z"/>
	</g>
</g>
<g>
	<g>
		<path class="st3" d="M9,79c0,0-0.3-0.1-1-0.2s-1.3-0.3-1.8-0.6s-1.1-0.6-1.5-1L5.9,75c0.5,0.4,1.2,0.8,1.9,1s1.5,0.4,2.2,0.4
			c0.9,0,1.5-0.1,2-0.4c0.5-0.3,0.7-0.7,0.7-1.3v0c0-0.4-0.1-0.7-0.3-0.9c-0.2-0.2-0.5-0.4-0.8-0.5c-0.3-0.1-0.8-0.2-1.3-0.3
			c0,0,0,0-0.1,0s0,0-0.1,0L10,73c-1-0.2-1.7-0.3-2.4-0.6S6.4,71.8,6,71.3c-0.4-0.6-0.7-1.4-0.7-2.4v0c0-0.9,0.2-1.7,0.6-2.4
			c0.4-0.7,1-1.1,1.8-1.5s1.7-0.5,2.8-0.5c0.5,0,1,0.1,1.6,0.2s1,0.3,1.6,0.5c0.5,0.2,1,0.5,1.4,0.8L14,68.3
			c-0.5-0.4-1.1-0.7-1.7-0.9c-0.6-0.2-1.2-0.3-1.7-0.3c-0.8,0-1.5,0.1-1.9,0.4C8.2,67.7,8,68.1,8,68.6v0c0,0.4,0.1,0.7,0.4,1
			c0.2,0.2,0.5,0.4,0.9,0.5c0.3,0.1,0.8,0.2,1.5,0.4c0,0,0.1,0,0.1,0c0,0,0.1,0,0.1,0c0,0,0.1,0,0.1,0s0.1,0,0.1,0
			c0.9,0.2,1.6,0.4,2.3,0.6c0.6,0.3,1.1,0.7,1.5,1.2s0.6,1.3,0.6,2.3v0c0,0.9-0.2,1.7-0.6,2.3s-1,1.1-1.9,1.5
			C12.1,78.8,11.2,79,10,79C9.3,79,9,79,9,79z"/>
		<path class="st3" d="M20.5,78.9h-2.8V64.7h2.8V78.9z"/>
		<path class="st3" d="M23.4,64.7h3.3l5.3,10.9l-0.2,0.3V64.7h2.6v14.2H31l-5.3-10.7l0.2-0.3v11h-2.6V64.7z"/>
		<path class="st3" d="M40.6,79c0,0-0.4-0.2-1.2-0.6c-0.8-0.4-1.4-1-1.8-1.8s-0.6-1.7-0.6-2.9v-3.9c0-1.1,0.2-2.1,0.6-2.9
			s1-1.4,1.8-1.8c0.8-0.4,1.7-0.6,2.8-0.6c0.9,0,1.7,0.2,2.4,0.6c0.7,0.4,1.3,0.9,1.7,1.7s0.8,1.6,1,2.7h-2.8
			c-0.1-0.5-0.3-0.9-0.5-1.2s-0.5-0.6-0.8-0.8s-0.7-0.3-1-0.3c-0.5,0-0.9,0.1-1.3,0.3s-0.6,0.5-0.8,0.9c-0.2,0.4-0.3,0.9-0.3,1.4
			v3.9c0,0.6,0.1,1,0.3,1.4s0.5,0.7,0.8,0.9s0.8,0.3,1.3,0.3c0.4,0,0.7-0.1,1.1-0.3c0.3-0.2,0.6-0.4,0.8-0.8s0.4-0.7,0.5-1.2h2.8
			c-0.2,1-0.5,1.9-1,2.7s-1,1.3-1.7,1.7c-0.7,0.4-1.5,0.6-2.4,0.6C41.2,79,40.6,79,40.6,79z"/>
		<path class="st3" d="M49.8,64.7h2.7v14.2h-2.7V64.7z M50.7,64.7h8.5v2.6h-8.5V64.7z M50.7,70.5h7.5v2.6h-7.5V70.5z M50.7,76.3h8.5
			v2.6h-8.5V76.3z"/>
	</g>
</g>
<g>
	<g>
		<path class="st3" d="M69.6,78.9h-2.7V67.8l-1.7,0.7v-2.8l2.1-1h2.3V78.9z"/>
		<path class="st3" d="M77.2,71.8l0.5,0.4c-0.2,0.3-0.4,0.5-0.7,0.7C76.6,73,76.2,73,75.7,73c-0.7,0-1.3-0.2-1.9-0.5
			c-0.5-0.3-1-0.8-1.3-1.5c-0.3-0.6-0.4-1.4-0.4-2.2v0c0-0.9,0.2-1.7,0.5-2.4c0.3-0.7,0.8-1.1,1.4-1.5c0.6-0.3,1.4-0.5,2.3-0.5
			c0.9,0,1.6,0.2,2.2,0.5c0.6,0.3,1.1,0.8,1.4,1.5c0.3,0.7,0.5,1.4,0.5,2.4v0c0,0.5-0.1,1-0.2,1.5c-0.1,0.5-0.3,1.1-0.6,1.8
			c0,0.1-0.1,0.2-0.1,0.3c0,0.1-0.1,0.2-0.1,0.3l-2.5,6.1h-2.8L77.2,71.8z M77.4,70.1c0.3-0.3,0.4-0.7,0.4-1.3v0
			c0-0.5-0.1-0.9-0.4-1.2c-0.3-0.3-0.6-0.4-1.1-0.4c-0.5,0-0.8,0.1-1.1,0.4s-0.4,0.7-0.4,1.2v0c0,0.6,0.1,1,0.4,1.3
			c0.3,0.3,0.6,0.4,1.1,0.4C76.8,70.5,77.1,70.4,77.4,70.1z"/>
		<path class="st3" d="M87.4,71.8l0.5,0.4c-0.2,0.3-0.4,0.5-0.7,0.7C86.8,73,86.4,73,86,73c-0.7,0-1.3-0.2-1.9-0.5
			c-0.5-0.3-1-0.8-1.3-1.5c-0.3-0.6-0.4-1.4-0.4-2.2v0c0-0.9,0.2-1.7,0.5-2.4c0.3-0.7,0.8-1.1,1.4-1.5c0.6-0.3,1.4-0.5,2.3-0.5
			c0.9,0,1.6,0.2,2.2,0.5c0.6,0.3,1.1,0.8,1.4,1.5c0.3,0.7,0.5,1.4,0.5,2.4v0c0,0.5-0.1,1-0.2,1.5c-0.1,0.5-0.3,1.1-0.6,1.8
			c0,0.1-0.1,0.2-0.1,0.3c0,0.1-0.1,0.2-0.1,0.3l-2.5,6.1h-2.8L87.4,71.8z M87.6,70.1c0.3-0.3,0.4-0.7,0.4-1.3v0
			c0-0.5-0.1-0.9-0.4-1.2c-0.3-0.3-0.6-0.4-1.1-0.4c-0.5,0-0.8,0.1-1.1,0.4s-0.4,0.7-0.4,1.2v0c0,0.6,0.1,1,0.4,1.3
			c0.3,0.3,0.6,0.4,1.1,0.4C87,70.5,87.4,70.4,87.6,70.1z"/>
		<path class="st3" d="M95.6,79c0,0-0.3-0.2-1-0.5s-1.2-0.8-1.6-1.4c-0.4-0.6-0.6-1.3-0.7-2.1h2.8c0,0.3,0.1,0.5,0.3,0.7
			s0.3,0.4,0.5,0.5s0.4,0.2,0.7,0.2c0.5,0,0.9-0.1,1.2-0.4s0.4-0.7,0.4-1.2v-0.3c0-0.5-0.1-1-0.3-1.3s-0.5-0.4-1-0.4h-1.2v-2.6h1.2
			c0.3,0,0.6-0.1,0.8-0.4c0.2-0.3,0.3-0.6,0.3-1.1v-0.2c0-0.4-0.1-0.8-0.3-1c-0.2-0.2-0.5-0.4-0.9-0.4c-0.2,0-0.5,0.1-0.7,0.2
			c-0.2,0.1-0.4,0.3-0.5,0.5s-0.2,0.5-0.3,0.8h-2.8c0.1-0.9,0.3-1.6,0.7-2.2c0.4-0.6,0.9-1.1,1.5-1.4c0.6-0.3,1.3-0.5,2.1-0.5
			c1.3,0,2.2,0.3,2.9,1c0.7,0.6,1,1.6,1,2.7v0.4c0,0.7-0.2,1.2-0.5,1.7s-0.8,0.9-1.4,1.1c0.7,0.2,1.2,0.5,1.6,1.1
			c0.4,0.6,0.6,1.3,0.6,2.1v0.4c0,0.8-0.2,1.5-0.5,2.1s-0.8,1-1.4,1.3c-0.6,0.3-1.4,0.5-2.3,0.5C96.1,79,95.6,79,95.6,79z"/>
	</g>
</g>
<g>
	<g>
		<path class="st3" d="M398.7,69.7c-0.4,0.4-0.6,1-0.6,1.7c0,0.5,0.2,1,0.6,1.3c0.4,0.3,1,0.4,1.7,0.4c0.7,0,1.3-0.2,1.8-0.6
			s0.9-1,1.2-1.8c0.3-0.8,0.4-1.7,0.4-2.7h2.6c0,1.6-0.2,2.9-0.7,4c-0.5,1.1-1.2,2-2.2,2.6s-2.1,0.9-3.5,0.9c-0.9,0-1.7-0.2-2.4-0.5
			c-0.7-0.3-1.2-0.8-1.5-1.4c-0.3-0.6-0.5-1.3-0.5-2.2c0-1.2,0.3-2.1,1-2.8c0.7-0.7,1.6-1.1,2.8-1.2l0.8,1.7
			C399.6,69.1,399,69.3,398.7,69.7z M399.1,69.7c-0.5-0.5-0.9-1-1.2-1.5c-0.3-0.5-0.6-1-0.7-1.6c-0.2-0.5-0.2-1.1-0.2-1.7
			c0-1.2,0.3-2.2,1-2.9c0.7-0.7,1.7-1,3-1c1.3,0,2.3,0.3,2.9,1s1,1.6,1,2.8v0.4h-2.7v-0.4c0-0.6-0.1-1-0.3-1.3
			c-0.2-0.3-0.6-0.5-1-0.5c-0.5,0-0.9,0.2-1.1,0.5s-0.4,0.8-0.4,1.5c0,0.3,0.1,0.7,0.3,1.2c0.2,0.4,0.4,0.9,0.7,1.4s0.7,1,1.2,1.5
			l5.8,6.4h-3L399.1,69.7z"/>
		<path class="st3" d="M415.7,75.5c0,0-0.4-0.2-1.2-0.6c-0.8-0.4-1.4-1-1.8-1.8s-0.6-1.7-0.6-2.9v-3.9c0-1.1,0.2-2.1,0.6-2.9
			s1-1.4,1.8-1.8c0.8-0.4,1.7-0.6,2.8-0.6c0.9,0,1.7,0.2,2.4,0.6c0.7,0.4,1.3,0.9,1.7,1.7s0.8,1.6,1,2.7h-2.8
			c-0.1-0.5-0.3-0.9-0.5-1.2s-0.5-0.6-0.8-0.8s-0.7-0.3-1-0.3c-0.5,0-0.9,0.1-1.3,0.3s-0.6,0.5-0.8,0.9c-0.2,0.4-0.3,0.9-0.3,1.4
			v3.9c0,0.6,0.1,1,0.3,1.4s0.5,0.7,0.8,0.9s0.8,0.3,1.3,0.3c0.4,0,0.7-0.1,1.1-0.3c0.3-0.2,0.6-0.4,0.8-0.8s0.4-0.7,0.5-1.2h2.8
			c-0.2,1-0.5,1.9-1,2.7s-1,1.3-1.7,1.7c-0.7,0.4-1.5,0.6-2.4,0.6C416.3,75.5,415.7,75.5,415.7,75.5z"/>
		<path class="st3" d="M425,74.7c-0.5-0.5-0.8-1.3-0.8-2.4c0-1,0.3-1.8,0.9-2.3c0.6-0.5,1.5-0.8,2.7-0.8h2.5l0.1,2h-2.7
			c-0.4,0-0.7,0.1-0.9,0.2c-0.2,0.2-0.3,0.4-0.3,0.7c0,0.3,0.1,0.6,0.4,0.7c0.3,0.2,0.6,0.2,1.2,0.2c0.7,0,1.2-0.1,1.6-0.2
			c0.3-0.2,0.5-0.4,0.5-0.8l0.2,1.5c0,0.4-0.2,0.7-0.5,0.9s-0.7,0.4-1.1,0.6s-0.9,0.2-1.4,0.2C426.4,75.5,425.5,75.2,425,74.7z
			 M430.3,68.9c0-0.5-0.2-0.8-0.5-1.1s-0.8-0.4-1.3-0.4c-0.4,0-0.8,0.1-1.1,0.2c-0.4,0.1-0.7,0.3-1,0.5l-1.7-1.6
			c0.4-0.5,0.9-0.8,1.6-1.1c0.7-0.3,1.4-0.4,2.2-0.4c0.9,0,1.6,0.1,2.3,0.4c0.6,0.3,1.1,0.7,1.4,1.3c0.3,0.6,0.5,1.2,0.5,2v6.5h-2.4
			V68.9z"/>
		<path class="st3" d="M435.3,65.2h2.9v10.1h-2.9V65.2z M440.6,67.7c-0.2-0.1-0.4-0.1-0.7-0.1c-0.5,0-1,0.2-1.3,0.5
			c-0.3,0.3-0.4,0.8-0.4,1.5L438,67c0.3-0.6,0.6-1.1,1.1-1.4c0.4-0.3,0.9-0.5,1.5-0.5c0.4,0,0.8,0.1,1.1,0.2
			c0.3,0.1,0.6,0.3,0.9,0.6L441,68C440.9,67.9,440.8,67.8,440.6,67.7z"/>
		<path class="st3" d="M443.9,65.2h2.7v14.3h-2.7V65.2z M447.4,75c-0.4-0.3-0.7-0.7-1-1.3l0.1-2.3c0,0.3,0.1,0.6,0.2,0.8
			s0.3,0.4,0.5,0.5c0.2,0.1,0.5,0.2,0.8,0.2c0.5,0,0.9-0.2,1.2-0.5s0.4-0.8,0.4-1.4v-1.6c0-0.6-0.1-1.1-0.4-1.4s-0.7-0.5-1.2-0.5
			c-0.3,0-0.6,0.1-0.8,0.2s-0.4,0.3-0.5,0.6c-0.1,0.2-0.2,0.5-0.2,0.9l-0.2-2.2c0.3-0.6,0.6-1,1.1-1.4s0.9-0.5,1.5-0.5
			c0.7,0,1.3,0.2,1.8,0.5c0.5,0.3,0.9,0.8,1.2,1.5s0.4,1.5,0.4,2.4v1.6c0,0.9-0.1,1.7-0.4,2.4s-0.7,1.2-1.2,1.5
			c-0.5,0.3-1.1,0.5-1.8,0.5C448.3,75.5,447.8,75.3,447.4,75z"/>
		<path class="st3" d="M457.6,75.5c0,0-0.3-0.2-1-0.5c-0.7-0.4-1.2-0.9-1.6-1.6c-0.4-0.7-0.5-1.5-0.5-2.5v-1.1c0-1,0.2-1.9,0.5-2.6
			c0.3-0.7,0.9-1.3,1.5-1.6s1.5-0.6,2.4-0.6c0.9,0,1.6,0.2,2.3,0.7c0.6,0.4,1.1,1.1,1.4,1.9c0.3,0.8,0.5,1.9,0.5,3.1v0.7h-6.9v-1.8
			h4.5l0-0.2c-0.1-0.6-0.3-1-0.6-1.4c-0.3-0.3-0.7-0.5-1.2-0.5c-0.6,0-1.1,0.2-1.5,0.6c-0.4,0.4-0.5,0.9-0.5,1.6V71
			c0,0.7,0.2,1.2,0.6,1.6c0.4,0.4,0.9,0.6,1.6,0.6c0.4,0,0.7-0.1,1.1-0.2s0.7-0.3,1-0.5l1.7,1.6c-0.5,0.5-1.1,0.9-1.8,1.1
			s-1.3,0.4-2,0.4C458.1,75.5,457.6,75.5,457.6,75.5z"/>
		<path class="st3" d="M464.7,65.2h5v2.3h-5V65.2z M466.4,74.7c-0.4-0.5-0.6-1.1-0.6-2V62.2h2.7V72c0,0.2,0,0.4,0.1,0.6
			c0.1,0.1,0.2,0.2,0.4,0.2h0.7v2.6h-1.3C467.4,75.4,466.8,75.2,466.4,74.7z"/>
		<path class="st3" d="M471.9,61.1h2.7v2.7h-2.7V61.1z M471.9,65.2h2.7v10.1h-2.7V65.2z"/>
		<path class="st3" d="M477,65.2h2.7v10.1H477V65.2z M482.9,69.2c0-0.5-0.1-0.9-0.4-1.2s-0.7-0.4-1.2-0.4c-0.5,0-0.9,0.1-1.1,0.4
			c-0.3,0.3-0.4,0.7-0.4,1.2l-0.2-2.2c0.3-0.6,0.7-1.1,1.1-1.4c0.4-0.3,1-0.5,1.6-0.5c1.1,0,1.9,0.4,2.5,1.1
			c0.6,0.7,0.9,1.7,0.9,3.1v6.2h-2.7V69.2z"/>
		<path class="st3" d="M489.5,75c-0.5-0.3-0.9-0.8-1.2-1.5s-0.4-1.4-0.4-2.4v-1.6c0-0.9,0.1-1.7,0.4-2.4s0.7-1.2,1.2-1.5
			c0.5-0.3,1.1-0.5,1.8-0.5c0.5,0,1,0.2,1.5,0.5s0.8,0.8,1.1,1.4l-0.2,2.2c0-0.3-0.1-0.6-0.2-0.9c-0.1-0.2-0.3-0.4-0.5-0.6
			s-0.5-0.2-0.8-0.2c-0.5,0-0.9,0.2-1.2,0.5s-0.4,0.8-0.4,1.4v1.6c0,0.6,0.1,1.1,0.4,1.4s0.7,0.5,1.2,0.5c0.3,0,0.6-0.1,0.8-0.2
			c0.2-0.1,0.4-0.3,0.5-0.5s0.2-0.5,0.2-0.8l0.1,2.3c-0.2,0.6-0.5,1-1,1.3s-0.9,0.5-1.5,0.5C490.6,75.5,490,75.3,489.5,75z
			 M490.6,79.5c0,0-0.3-0.1-1-0.4s-1.1-0.7-1.5-1.2l1.8-1.7c0.2,0.2,0.5,0.4,0.8,0.6c0.3,0.1,0.7,0.2,1,0.2c0.6,0,1-0.2,1.4-0.5
			c0.4-0.3,0.5-0.7,0.5-1.3v-10h2.7V75c0,0.9-0.2,1.7-0.5,2.4s-0.9,1.2-1.6,1.5c-0.7,0.3-1.5,0.5-2.5,0.5
			C491,79.5,490.6,79.5,490.6,79.5z"/>
	</g>
</g>
</svg>
