<svg xmlns="http://www.w3.org/2000/svg" viewBox="0 0 100 100"><defs><style>.cls-1{fill:#66fcf1;}.cls-2{fill:none;stroke:#66fcf1;stroke-miterlimit:10;stroke-width:4px;}</style></defs><title>Asset 2Quest</title><g id="Layer_2" data-name="Layer 2"><g id="Layer_1-2" data-name="Layer 1"><path class="cls-1" d="M50,4A46,46,0,1,1,4,50,46.06,46.06,0,0,1,50,4m0-4a50,50,0,1,0,50,50A50,50,0,0,0,50,0Z"/><line class="cls-2" x1="50" y1="98" x2="100" y2="98"/><path class="cls-2" d="M11,50A39,39,0,0,0,50,89"/><path class="cls-2" d="M88,50c0,21.56-17,39-38,39"/><path class="cls-2" d="M22,50A28,28,0,0,0,50,78"/><path class="cls-2" d="M78,50A28,28,0,0,1,50,78"/><line class="cls-2" x1="50" y1="78" x2="50" y2="50"/><path class="cls-2" d="M17,50c0-17.69,14.76-32,33-32"/><path class="cls-2" d="M83,50c0-17.69-14.76-32-33-32"/><line class="cls-2" x1="50" y1="18" x2="50" y2="38"/><line class="cls-2" x1="50" y1="37" x2="50" y2="37"/><path class="cls-2" d="M64,52c0-7.74-7.16-14-16-14"/><path class="cls-2" d="M36,36c0,8.29,7.16,15,16,15"/></g></g></svg>