<?xml version="1.0" standalone="no"?>
<!DOCTYPE svg PUBLIC "-//W3C//DTD SVG 20010904//EN"
 "http://www.w3.org/TR/2001/REC-SVG-20010904/DTD/svg10.dtd">
<svg version="1.0" xmlns="http://www.w3.org/2000/svg"
 width="731.000000pt" height="731.000000pt" viewBox="0 0 731.000000 731.000000"
 preserveAspectRatio="xMidYMid meet">
<metadata>
Created by potrace 1.11, written by Peter Selinger 2001-2013
</metadata>
<g transform="translate(0.000000,731.000000) scale(0.100000,-0.100000)"
fill="#000000" stroke="none">
<path d="M2500 6742 c0 -4 -17 -25 -37 -47 -19 -22 -101 -116 -182 -210 -80
-93 -155 -179 -166 -191 -11 -12 -31 -34 -44 -50 -52 -62 -137 -159 -147 -169
-5 -5 -35 -39 -65 -75 -30 -36 -58 -70 -64 -76 -5 -6 -35 -39 -65 -74 -30 -36
-89 -103 -130 -150 -41 -47 -97 -112 -125 -145 -27 -32 -55 -63 -61 -69 -5 -6
-37 -42 -69 -81 -32 -38 -61 -72 -65 -75 -3 -3 -36 -41 -74 -85 -38 -44 -90
-105 -117 -135 -27 -30 -56 -64 -66 -76 -10 -12 -41 -48 -69 -80 -28 -32 -102
-117 -164 -189 -62 -71 -136 -157 -166 -190 -29 -33 -62 -71 -74 -85 -32 -39
-113 -131 -135 -156 -11 -12 -38 -43 -60 -70 -22 -27 -54 -64 -72 -84 -38 -43
-122 -138 -143 -164 -33 -40 -96 -112 -117 -133 -21 -22 -22 -24 -5 -55 9 -18
20 -35 24 -38 4 -3 24 -30 45 -61 21 -30 72 -103 113 -163 41 -59 80 -115 85
-124 6 -9 13 -19 16 -22 3 -3 34 -48 70 -100 35 -52 68 -99 72 -105 5 -5 79
-112 165 -236 86 -124 165 -237 175 -250 9 -13 48 -69 86 -124 161 -237 450
-651 465 -668 9 -9 16 -21 16 -26 0 -5 6 -16 13 -23 12 -12 45 -59 172 -241
22 -33 45 -66 50 -75 6 -10 12 -19 15 -22 3 -3 77 -108 165 -235 87 -126 162
-232 167 -233 4 -2 8 -8 8 -12 0 -6 191 -288 216 -319 3 -4 38 -7 174 -16 58
-4 128 -9 155 -11 28 -2 82 -6 120 -9 90 -6 190 -13 285 -20 76 -6 146 -11
275 -20 132 -9 220 -15 280 -20 33 -3 101 -7 150 -10 50 -3 110 -8 135 -10 25
-3 90 -8 145 -11 173 -11 180 -11 180 -13 0 -1 38 -4 85 -7 158 -9 335 -21
425 -29 28 -2 87 -7 133 -10 l82 -6 49 53 c27 29 62 68 77 86 16 19 40 46 54
62 24 26 109 122 147 166 47 54 151 171 176 198 15 16 46 52 69 78 23 27 58
67 77 88 20 21 45 49 56 62 19 24 120 138 175 198 14 15 48 53 75 85 28 32 70
81 95 109 25 27 54 60 65 72 11 12 45 50 75 85 30 35 68 77 84 94 15 16 44 50
65 74 20 24 50 58 66 75 17 18 53 58 80 90 28 32 59 68 70 80 11 13 50 56 86
97 36 41 124 139 195 219 70 80 135 153 144 163 8 10 24 29 35 41 11 12 47 53
80 91 33 37 83 93 110 123 77 85 85 94 167 189 43 49 95 108 117 132 45 49 47
39 -27 142 -26 37 -90 127 -142 200 -52 74 -98 139 -103 144 -7 8 -257 360
-307 432 -8 12 -55 78 -105 148 -180 251 -415 580 -425 595 -35 51 -281 397
-288 406 -5 6 -31 42 -58 80 -26 38 -51 71 -56 72 -4 2 -8 8 -8 12 0 5 -21 38
-47 74 -27 36 -73 100 -103 143 -30 43 -57 80 -60 83 -3 3 -25 34 -50 70 -24
36 -48 67 -52 68 -4 2 -8 8 -8 13 0 8 -44 71 -85 121 -8 10 -25 35 -39 55 -13
21 -58 85 -100 142 -41 58 -77 108 -78 112 -3 7 -87 19 -183 25 -33 2 -78 6
-100 9 -22 3 -62 8 -90 10 -75 7 -144 15 -200 21 -53 5 -92 9 -189 18 -34 4
-81 8 -106 11 -25 2 -70 7 -100 10 -30 3 -71 7 -90 9 -19 2 -66 7 -105 11 -38
3 -86 8 -105 10 -19 2 -62 7 -95 10 -33 2 -80 7 -105 10 -25 3 -65 7 -90 9
-61 6 -177 17 -220 22 -19 2 -60 6 -90 9 -30 3 -75 7 -100 10 -43 5 -97 10
-200 20 -41 4 -116 12 -195 20 -16 2 -59 6 -95 9 -36 3 -89 8 -117 11 -29 2
-53 1 -53 -3z m935 -737 c44 -4 94 -8 110 -10 17 -1 57 -5 90 -8 33 -4 87 -9
120 -12 169 -15 257 -23 325 -30 54 -6 203 -18 223 -19 9 0 17 -4 17 -8 0 -6
-48 -66 -70 -88 -3 -3 -30 -34 -60 -70 -30 -36 -66 -77 -80 -91 -25 -27 -45
-50 -122 -141 -24 -28 -54 -63 -68 -78 -14 -15 -47 -52 -73 -83 l-49 -57 -46
68 c-25 37 -75 108 -111 159 -36 51 -91 128 -121 172 -30 44 -58 80 -62 81 -5
0 -8 5 -8 10 0 6 -30 51 -66 101 -79 110 -84 119 -52 114 12 -2 59 -7 103 -10z
m-798 -150 c5 -5 46 -64 93 -130 47 -66 88 -124 93 -130 4 -5 39 -55 77 -110
39 -55 77 -109 85 -120 7 -11 73 -103 145 -205 72 -102 146 -205 164 -230 18
-25 43 -60 55 -78 26 -37 28 -30 -34 -97 -53 -57 -95 -106 -95 -110 0 -3 -8
-13 -17 -23 -10 -10 -41 -44 -70 -77 -28 -33 -64 -73 -78 -90 -14 -16 -47 -55
-73 -85 -26 -30 -54 -62 -62 -70 -8 -8 -42 -46 -75 -85 -32 -38 -66 -77 -75
-86 -8 -9 -35 -41 -60 -70 -25 -29 -55 -64 -67 -77 -13 -12 -23 -27 -23 -33 0
-6 -6 -7 -12 -2 -7 4 -31 9 -53 10 -57 3 -160 12 -160 13 0 1 -29 3 -65 5 -36
2 -87 7 -115 10 -56 6 -133 13 -215 19 -52 5 -159 14 -253 22 -23 2 -67 5 -97
8 -30 3 -84 8 -120 11 -36 3 -92 8 -125 11 -113 10 -190 16 -237 17 -27 1 -48
4 -48 7 0 4 -16 4 -35 2 -19 -2 -35 -1 -35 4 0 6 69 91 115 140 5 6 33 37 60
69 28 33 59 69 70 81 11 12 38 43 60 69 22 26 47 55 55 65 8 10 38 44 65 76
28 32 61 71 75 85 14 15 41 47 60 70 19 24 47 56 63 71 15 16 27 31 27 34 0 3
10 15 23 28 12 12 42 46 67 76 25 29 50 58 55 64 6 6 53 61 104 121 52 61 99
115 105 120 6 6 33 37 60 70 28 33 57 67 65 76 9 9 45 50 81 92 35 43 68 77
72 77 5 0 8 5 8 10 0 6 8 18 18 28 9 10 40 45 67 77 28 32 62 72 77 89 16 17
45 52 65 78 34 42 39 45 50 30 7 -9 16 -21 20 -27z m2380 -271 c37 -53 82
-118 100 -143 17 -25 35 -51 40 -56 31 -37 63 -85 63 -93 0 -6 4 -12 8 -14 5
-1 62 -79 128 -173 65 -93 122 -174 127 -180 4 -5 35 -48 68 -95 32 -47 66
-94 73 -105 8 -11 129 -182 270 -380 140 -198 279 -395 310 -437 31 -42 51
-80 46 -83 -6 -3 -14 -4 -19 -1 -5 4 -45 9 -88 11 -43 3 -89 8 -103 10 -14 2
-61 7 -105 10 -94 7 -138 11 -220 19 -33 3 -87 8 -120 11 -33 3 -87 7 -120 10
-33 3 -87 8 -120 11 -33 3 -73 8 -90 9 -16 2 -68 6 -115 10 -47 3 -96 8 -110
10 -30 5 -166 16 -235 20 -50 2 -50 3 -105 78 -30 41 -98 136 -150 211 -52 75
-121 172 -152 216 -32 44 -58 84 -58 90 0 5 -3 10 -8 10 -4 0 -18 18 -32 40
-14 22 -28 40 -32 40 -5 0 -8 5 -8 11 0 9 -47 77 -81 117 -11 13 9 47 63 102
23 24 184 210 224 259 10 13 30 35 44 50 14 14 52 58 85 96 33 39 62 72 65 75
3 3 30 34 60 70 30 36 57 67 60 70 3 3 32 36 65 74 33 38 69 80 80 93 11 12
21 23 22 23 1 0 32 -43 70 -96z m-1167 -1439 c50 -71 98 -139 106 -150 8 -11
64 -89 124 -174 l110 -155 -22 -25 c-13 -14 -27 -30 -33 -36 -5 -5 -66 -75
-135 -155 -68 -80 -127 -147 -130 -150 -3 -3 -34 -39 -70 -80 -36 -41 -69 -80
-75 -86 -17 -18 -102 -117 -122 -142 l-19 -24 -64 92 c-36 50 -71 97 -77 105
-7 7 -13 18 -13 24 0 6 -3 11 -7 11 -5 0 -21 21 -38 48 -16 26 -32 49 -35 52
-6 5 -191 265 -204 287 -4 7 5 25 21 42 15 16 37 40 47 53 16 19 218 252 293
338 37 43 63 73 106 124 23 27 56 64 72 83 17 18 36 40 44 49 16 19 9 27 121
-131z m-2700 -709 c162 -13 205 -16 248 -22 24 -2 76 -7 115 -10 40 -2 90 -6
112 -8 22 -3 78 -7 125 -11 47 -3 103 -8 125 -10 22 -3 76 -7 120 -11 44 -3
94 -8 110 -9 17 -2 64 -6 105 -9 67 -5 162 -13 245 -22 17 -1 54 -4 83 -5 28
-1 52 -6 52 -11 0 -4 17 -32 37 -61 20 -28 96 -137 169 -242 73 -104 137 -195
142 -201 5 -5 22 -30 38 -55 16 -24 31 -46 34 -49 5 -5 84 -120 127 -184 20
-32 21 -35 5 -52 -9 -11 -78 -89 -152 -174 -74 -85 -144 -164 -155 -176 -11
-12 -40 -45 -64 -74 -25 -29 -50 -58 -55 -64 -6 -6 -42 -47 -81 -91 -38 -44
-76 -87 -85 -96 -8 -9 -29 -34 -46 -55 -18 -22 -48 -56 -67 -76 -19 -21 -46
-51 -59 -68 l-25 -32 -44 61 c-24 33 -80 112 -124 176 -44 64 -98 142 -121
173 -46 66 -140 201 -198 287 -23 33 -44 62 -47 65 -3 3 -40 56 -82 118 -42
62 -81 118 -87 125 -6 6 -62 86 -124 177 -63 91 -119 170 -124 176 -5 5 -15
20 -21 33 -7 12 -19 30 -26 39 -49 59 -313 448 -309 454 3 5 8 6 12 4 4 -2 45
-7 92 -10z m3785 -162 c22 -1 69 -5 105 -8 36 -3 99 -8 140 -11 41 -3 100 -7
130 -10 30 -2 89 -7 130 -10 41 -3 91 -7 110 -9 32 -4 125 -11 280 -21 30 -2
80 -6 110 -9 30 -3 96 -8 145 -12 50 -4 106 -8 125 -9 19 -2 40 -4 47 -4 7 -1
-2 -16 -20 -34 -18 -18 -57 -62 -89 -97 -31 -36 -69 -79 -85 -97 -15 -17 -44
-50 -63 -74 -19 -23 -44 -51 -56 -63 -12 -12 -72 -79 -135 -151 -62 -71 -116
-132 -119 -135 -3 -3 -34 -39 -70 -80 -36 -41 -82 -93 -102 -115 -20 -22 -46
-51 -58 -65 -32 -37 -57 -66 -145 -165 -44 -49 -91 -103 -105 -119 -14 -16
-36 -41 -50 -56 -14 -14 -46 -51 -72 -81 -26 -30 -59 -67 -73 -84 -15 -16 -50
-56 -78 -89 -29 -32 -61 -68 -72 -80 -40 -44 -143 -161 -161 -183 l-19 -22
-130 186 c-116 166 -193 276 -289 412 -17 23 -35 50 -41 60 -5 9 -12 18 -15
21 -3 3 -17 21 -30 40 -14 19 -28 40 -32 45 -5 6 -49 69 -99 140 -49 72 -94
131 -99 133 -4 2 2 13 13 25 18 19 100 110 167 187 8 9 34 39 58 66 24 27 69
78 100 113 31 36 79 90 107 120 27 31 59 67 70 80 11 13 25 29 30 35 6 6 57
64 114 129 l104 118 91 -7 c50 -3 109 -8 131 -10z m-1265 -1524 c74 -105 140
-198 145 -207 6 -9 16 -23 23 -32 15 -18 111 -153 155 -217 26 -39 34 -60 20
-51 -9 5 -126 16 -231 22 -37 2 -103 7 -147 10 -88 7 -141 11 -260 19 -82 6
-212 16 -275 21 -19 2 -52 3 -72 4 -45 1 -47 9 -10 49 27 29 130 145 165 186
10 12 33 37 50 57 18 20 57 64 87 99 30 35 66 75 80 91 14 15 47 52 74 83 26
31 51 56 55 56 3 0 67 -86 141 -190z"/>
</g>
</svg>
