<svg xmlns="http://www.w3.org/2000/svg" viewBox="0 0 3489.98 3637"><defs><style>.cls-1{isolation:isolate;}.cls-2{fill:#101010;}.cls-3{fill:#a76bb5;}.cls-4{opacity:0.33;mix-blend-mode:multiply;}.cls-5{fill:#4d4d4d;}.cls-6{fill:#787878;}.cls-7,.cls-9{font-size:100px;font-weight:700;}.cls-7,.cls-8,.cls-9{fill:#fff;}.cls-7{font-family:Rubik-BoldItalic, Rubik;font-style:italic;}.cls-9{font-family:Rubik-Bold, Rubik;}</style></defs><title>Artboard 1</title><g class="cls-1"><g id="Layer_1" data-name="Layer 1"><rect class="cls-2" width="3489.98" height="3637"/><rect class="cls-3" x="2150" y="450" width="1000" height="800"/><g class="cls-4"><polygon points="3000 615 2300 615 2300 315 3000 315 3000 315 3000 615 3000 615"/></g><polygon class="cls-5" points="3000 600 2300 600 2300 300 3000 300 3000 300 3000 600 3000 600"/><g class="cls-4"><rect x="2935" y="365" width="50" height="235"/></g><rect class="cls-5" x="2950" y="365" width="50" height="235"/><g class="cls-4"><rect x="2315" y="365" width="50" height="235"/></g><rect class="cls-5" x="2300" y="365" width="50" height="235"/><g class="cls-4"><rect x="2350" y="315" width="600" height="50"/></g><rect class="cls-5" x="2350" y="300" width="600" height="50"/><g class="cls-4"><rect x="2338" y="390" width="135" height="150" rx="18.37" ry="18.37" transform="translate(1222.84 2610.69) rotate(-72.08)"/></g><rect class="cls-6" x="2338" y="375" width="135" height="150" rx="18.37" ry="18.37" transform="translate(1237.11 2600.3) rotate(-72.08)"/><g class="cls-4"><rect x="2807.7" y="405.82" width="150" height="135" rx="18.37" ry="18.37" transform="translate(683.42 2396.12) rotate(-50.49)"/></g><rect class="cls-6" x="2807.7" y="390.82" width="150" height="135" rx="18.37" ry="18.37" transform="translate(695 2390.67) rotate(-50.49)"/><text class="cls-7" transform="translate(2627.78 571)">7’</text><g class="cls-4"><rect x="2450" y="715" width="400" height="285"/></g><rect class="cls-5" x="2450" y="700" width="400" height="285"/><g class="cls-4"><rect x="2624.39" y="776.69" width="80" height="100" transform="matrix(1, -0.02, 0.02, 1, -17.86, 59.92)"/></g><rect class="cls-8" x="2624.39" y="761.69" width="80" height="100" transform="matrix(1, -0.02, 0.02, 1, -17.52, 59.92)"/><g class="cls-4"><rect x="2680.62" y="762.98" width="80" height="100" transform="translate(188.72 2098.36) rotate(-43.55)"/></g><rect class="cls-8" x="2680.62" y="747.98" width="80" height="100" transform="translate(199.05 2094.23) rotate(-43.55)"/><g class="cls-4"><rect x="2721.28" y="737.12" width="80" height="100" transform="translate(434.94 2470.09) rotate(-51.79)"/></g><rect class="cls-8" x="2721.28" y="722.12" width="80" height="100" transform="translate(446.73 2464.37) rotate(-51.79)"/><g class="cls-4"><circle cx="2545" cy="764.5" r="25"/><circle cx="2545" cy="764.5" r="20"/><rect x="2500" y="759.5" width="25" height="10"/></g><circle class="cls-8" cx="2545" cy="749.5" r="25"/><circle class="cls-5" cx="2545" cy="749.5" r="20"/><rect class="cls-8" x="2500" y="744.5" width="25" height="10"/><g class="cls-4"><polygon points="3000 1415 2300 1415 2300 1115 3000 1115 3000 1115 3000 1415 3000 1415"/></g><polygon class="cls-5" points="3000 1400 2300 1400 2300 1100 3000 1100 3000 1100 3000 1400 3000 1400"/><g class="cls-4"><rect x="2935" y="1100" width="50" height="235"/></g><rect class="cls-5" x="2950" y="1100" width="50" height="235"/><g class="cls-4"><rect x="2315" y="1100" width="50" height="235"/></g><rect class="cls-5" x="2300" y="1100" width="50" height="235"/><g class="cls-4"><rect x="2350" y="1335" width="600" height="50"/></g><rect class="cls-5" x="2350" y="1350" width="600" height="50"/><g class="cls-4"><rect x="2819.88" y="1172.55" width="135" height="150" rx="18.37" ry="18.37" transform="translate(811.86 3610.92) rotate(-72.08)"/></g><rect class="cls-6" x="2819.88" y="1157.55" width="135" height="150" rx="18.37" ry="18.37" transform="translate(826.13 3600.54) rotate(-72.08)"/><g class="cls-4"><rect x="2332.7" y="1154.18" width="150" height="135" rx="18.37" ry="18.37" transform="translate(-66.71 2301.88) rotate(-50.49)"/></g><rect class="cls-6" x="2332.7" y="1139.18" width="150" height="135" rx="18.37" ry="18.37" transform="translate(-55.13 2296.43) rotate(-50.49)"/><text class="cls-7" transform="translate(2627.78 1290.98)">7’</text><text class="cls-9" transform="translate(2508.58 1571)">8’ x 10’</text><rect class="cls-3" x="300" y="450" width="1000" height="800"/><g class="cls-4"><polygon points="1150 615 450 615 450 315 1150 315 1150 315 1150 615 1150 615"/></g><polygon class="cls-5" points="1150 600 450 600 450 300 1150 300 1150 300 1150 600 1150 600"/><g class="cls-4"><rect x="1085" y="365" width="50" height="235"/></g><rect class="cls-5" x="1100" y="365" width="50" height="235"/><g class="cls-4"><rect x="465" y="365" width="50" height="235"/></g><rect class="cls-5" x="450" y="365" width="50" height="235"/><g class="cls-4"><rect x="500" y="315" width="600" height="50"/></g><rect class="cls-5" x="500" y="300" width="600" height="50"/><g class="cls-4"><rect x="488" y="390" width="135" height="150" rx="18.37" ry="18.37" transform="translate(-57.87 850.46) rotate(-72.08)"/></g><rect class="cls-6" x="488" y="375" width="135" height="150" rx="18.37" ry="18.37" transform="translate(-43.6 840.07) rotate(-72.08)"/><g class="cls-4"><rect x="957.7" y="405.82" width="150" height="135" rx="18.37" ry="18.37" transform="matrix(0.64, -0.77, 0.77, 0.64, 10.49, 968.88)"/></g><rect class="cls-6" x="957.7" y="390.82" width="150" height="135" rx="18.37" ry="18.37" transform="matrix(0.64, -0.77, 0.77, 0.64, 22.06, 963.42)"/><text class="cls-7" transform="translate(777.78 571)">7’</text><g class="cls-4"><rect x="600" y="715" width="400" height="285"/></g><rect class="cls-5" x="600" y="700" width="400" height="285"/><g class="cls-4"><rect x="774.39" y="776.69" width="80" height="100" transform="matrix(1, -0.02, 0.02, 1, -18.32, 18.46)"/></g><rect class="cls-8" x="774.39" y="761.69" width="80" height="100" transform="matrix(1, -0.02, 0.02, 1, -17.99, 18.46)"/><g class="cls-4"><rect x="830.62" y="762.98" width="80" height="100" transform="translate(-320.52 823.66) rotate(-43.55)"/></g><rect class="cls-8" x="830.62" y="747.98" width="80" height="100" transform="translate(-310.18 819.53) rotate(-43.55)"/><g class="cls-4"><rect x="871.28" y="737.12" width="80" height="100" transform="translate(-270.85 1016.38) rotate(-51.79)"/></g><rect class="cls-8" x="871.28" y="722.12" width="80" height="100" transform="translate(-259.06 1010.65) rotate(-51.79)"/><g class="cls-4"><circle cx="695" cy="764.5" r="25"/><circle cx="695" cy="764.5" r="20"/><rect x="650" y="759.5" width="25" height="10"/></g><circle class="cls-8" cx="695" cy="749.5" r="25"/><circle class="cls-5" cx="695" cy="749.5" r="20"/><rect class="cls-8" x="650" y="744.5" width="25" height="10"/><rect class="cls-3" x="308.95" y="2100" width="1000" height="800"/><g class="cls-4"><polygon points="1208.94 2265 408.95 2265 408.95 1965 1208.95 1965 1208.95 1965 1208.95 2265 1208.94 2265"/></g><polygon class="cls-5" points="1208.94 2250 408.95 2250 408.95 1950 1208.95 1950 1208.95 1950 1208.95 2250 1208.94 2250"/><g class="cls-4"><rect x="1136.8" y="2015" width="57.14" height="235"/></g><rect class="cls-5" x="1151.8" y="2015" width="57.14" height="235"/><g class="cls-4"><rect x="423.95" y="2015" width="57.14" height="235"/></g><rect class="cls-5" x="408.95" y="2015" width="57.14" height="235"/><g class="cls-4"><rect x="466.09" y="1965" width="685.71" height="50"/></g><rect class="cls-5" x="466.09" y="1950" width="685.71" height="50"/><g class="cls-4"><rect x="454.07" y="2057.45" width="135" height="150" rx="18.37" ry="18.37" transform="translate(-1667.91 1972.52) rotate(-72.08)"/></g><rect class="cls-6" x="454.07" y="2042.45" width="135" height="150" rx="18.37" ry="18.37" transform="translate(-1653.63 1962.13) rotate(-72.08)"/><rect class="cls-3" x="1750" y="2050" width="1400" height="1000"/><g class="cls-4"><rect x="1026.25" y="2054.18" width="150" height="135" rx="18.37" ry="18.37" transform="translate(-1236.26 1621.36) rotate(-50.49)"/></g><rect class="cls-6" x="1026.25" y="2039.18" width="150" height="135" rx="18.37" ry="18.37" transform="translate(-1224.69 1615.9) rotate(-50.49)"/><text class="cls-7" transform="translate(790.72 2190.98)">8’</text><g class="cls-4"><rect x="608.95" y="2365" width="400" height="285"/></g><rect class="cls-5" x="608.95" y="2350" width="400" height="285"/><g class="cls-4"><rect x="783.34" y="2426.69" width="80" height="100" transform="matrix(1, -0.02, 0.02, 1, -55.3, 19.07)"/></g><rect class="cls-8" x="783.34" y="2411.69" width="80" height="100" transform="matrix(1, -0.02, 0.02, 1, -54.96, 19.07)"/><g class="cls-4"><rect x="839.56" y="2412.98" width="80" height="100" transform="translate(-1454.95 1284.01) rotate(-43.55)"/></g><rect class="cls-8" x="839.56" y="2397.98" width="80" height="100" transform="translate(-1444.61 1279.88) rotate(-43.55)"/><g class="cls-4"><rect x="880.23" y="2387.12" width="80" height="100" transform="translate(-1564 1652.9) rotate(-51.79)"/></g><rect class="cls-8" x="880.23" y="2372.12" width="80" height="100" transform="translate(-1552.21 1647.18) rotate(-51.79)"/><g class="cls-4"><circle cx="703.95" cy="2414.5" r="25"/><circle cx="703.95" cy="2414.5" r="20"/><rect x="658.95" y="2409.5" width="25" height="10"/></g><circle class="cls-8" cx="703.95" cy="2399.5" r="25"/><circle class="cls-5" cx="703.95" cy="2399.5" r="20"/><rect class="cls-8" x="658.95" y="2394.5" width="25" height="10"/><g class="cls-4"><polygon points="658.95 3015 358.95 3015 358.95 2765 658.95 2765 658.95 2765 658.95 3015 658.95 3015"/></g><polygon class="cls-5" points="658.95 3000 358.95 3000 358.95 2750 658.95 2750 658.95 2750 658.95 3000 658.95 3000"/><g class="cls-4"><rect x="593.82" y="2750.5" width="50" height="192.83"/></g><rect class="cls-5" x="608.82" y="2750.5" width="50" height="192.83"/><g class="cls-4"><rect x="373.95" y="2750" width="50" height="193.33"/></g><rect class="cls-5" x="358.95" y="2750" width="50" height="193.33"/><g class="cls-4"><rect x="408.95" y="2943.33" width="200" height="41.67"/></g><rect class="cls-5" x="408.95" y="2958.33" width="200" height="41.67"/><text class="cls-7" transform="translate(461.83 2880.99)">3’</text><g class="cls-4"><polygon points="1258.95 3015 958.95 3015 958.95 2765 1258.95 2765 1258.95 2765 1258.95 3015 1258.95 3015"/></g><polygon class="cls-5" points="1258.95 3000 958.95 3000 958.95 2750 1258.95 2750 1258.95 2750 1258.95 3000 1258.95 3000"/><g class="cls-4"><rect x="1193.82" y="2750.5" width="50" height="192.83"/></g><rect class="cls-5" x="1208.82" y="2750.5" width="50" height="192.83"/><g class="cls-4"><rect x="973.95" y="2750" width="50" height="193.33"/></g><rect class="cls-5" x="958.95" y="2750" width="50" height="193.33"/><g class="cls-4"><rect x="1008.95" y="2943.33" width="200" height="41.67"/></g><rect class="cls-5" x="1008.95" y="2958.33" width="200" height="41.67"/><text class="cls-7" transform="translate(1061.83 2880.99)">3’</text><g class="cls-4"><rect x="708.95" y="2765" width="200" height="185"/></g><rect class="cls-5" x="708.95" y="2750" width="200" height="185"/><g class="cls-4"><circle cx="783.95" cy="2840" r="25"/><circle cx="783.95" cy="2840" r="20"/></g><circle class="cls-8" cx="783.95" cy="2825" r="25"/><circle class="cls-5" cx="783.95" cy="2825" r="20"/><g class="cls-4"><polygon points="3000 2265 1900 2265 1900 1965 3000 1965 3000 1965 3000 2265 3000 2265"/></g><polygon class="cls-5" points="3000 2250 1900 2250 1900 1950 3000 1950 3000 1950 3000 2250 3000 2250"/><g class="cls-4"><rect x="2906.43" y="2015" width="78.57" height="235"/></g><rect class="cls-5" x="2921.43" y="2015" width="78.57" height="235"/><g class="cls-4"><rect x="1915" y="2015" width="78.57" height="235"/></g><rect class="cls-5" x="1900" y="2015" width="78.57" height="235"/><g class="cls-4"><rect x="1978.57" y="1965" width="942.86" height="50"/></g><rect class="cls-5" x="1978.57" y="1950" width="942.86" height="50"/><text class="cls-7" transform="translate(2356.63 2190.98)">11’</text><g class="cls-4"><rect x="2819.88" y="2057.45" width="135" height="150" rx="18.37" ry="18.37" transform="translate(-30.11 4223.52) rotate(-72.08)"/></g><rect class="cls-6" x="2819.88" y="2042.45" width="135" height="150" rx="18.37" ry="18.37" transform="translate(-15.84 4213.14) rotate(-72.08)"/><g class="cls-4"><rect x="1945.12" y="2057.45" width="135" height="150" rx="18.37" ry="18.37" transform="translate(-635.68 3391.22) rotate(-72.08)"/></g><rect class="cls-6" x="1945.12" y="2042.45" width="135" height="150" rx="18.37" ry="18.37" transform="translate(-621.41 3380.83) rotate(-72.08)"/><g class="cls-4"><polygon points="3000 3115 1900 3115 1900 2815 3000 2815 3000 2815 3000 3115 3000 3115"/></g><polygon class="cls-5" points="3000 3100 1900 3100 1900 2800 3000 2800 3000 2800 3000 3100 3000 3100"/><g class="cls-4"><rect x="2906.43" y="2800" width="78.57" height="235"/></g><rect class="cls-5" x="2921.43" y="2800" width="78.57" height="235"/><g class="cls-4"><rect x="1915" y="2800" width="78.57" height="235"/></g><rect class="cls-5" x="1900" y="2800" width="78.57" height="235"/><g class="cls-4"><rect x="1978.57" y="3035" width="942.86" height="50"/></g><rect class="cls-5" x="1978.57" y="3050" width="942.86" height="50"/><g class="cls-4"><rect x="2819.88" y="2872.55" width="135" height="150" rx="18.37" ry="18.37" transform="matrix(0.31, -0.95, 0.95, 0.31, -805.65, 4787.8)"/></g><rect class="cls-6" x="2819.88" y="2857.55" width="135" height="150" rx="18.37" ry="18.37" transform="matrix(0.31, -0.95, 0.95, 0.31, -791.38, 4777.41)"/><g class="cls-4"><rect x="1932.7" y="2854.18" width="150" height="135" rx="18.37" ry="18.37" transform="translate(-1523.73 2611.67) rotate(-50.49)"/></g><rect class="cls-6" x="1932.7" y="2839.18" width="150" height="135" rx="18.37" ry="18.37" transform="translate(-1512.16 2606.21) rotate(-50.49)"/><text class="cls-7" transform="translate(2365.57 2940.98)">11’</text><text class="cls-9" transform="translate(649.63 1421)">8’ x 10’</text><text class="cls-9" transform="translate(649.63 3240.98)">8’ x 10’</text><text class="cls-9" transform="translate(2324.08 3321)">10’ x 14’</text></g></g></svg>