<?xml version="1.0" encoding="utf-8"?>
<!-- Generator: Adobe Illustrator 22.0.0, SVG Export Plug-In . SVG Version: 6.00 Build 0)  -->
<svg version="1.1" id="Layer_1" xmlns="http://www.w3.org/2000/svg" xmlns:xlink="http://www.w3.org/1999/xlink" x="0px" y="0px"
	 viewBox="0 0 730.6 618.7" style="enable-background:new 0 0 730.6 618.7;" xml:space="preserve">
<style type="text/css">
	.st1{fill:#950740;}
	.st2{fill:#6F2232;}
	.st3{fill:#C3073F;}
</style>
<title>Asset 1ImpCube</title>
<g id="Layer_1-2">
	<g id="XMLID_1_">
		<g>
			<polygon class="st0" points="730.6,333.3 730.6,333.3 730.6,333.3 470.3,311 			"/>
			<polygon class="st1" points="511.9,26.2 730.6,333.3 470.3,311 401.7,213.8 416.7,196.4 474.6,278.8 626,292.5 679.7,297.3
				508,57.4 303.9,36.2 330,73.2 379.7,143.8 364.6,161.2 250.9,0 			"/>
			<path class="st2" d="M730.6,333.3L478,618.8L215.8,600L470.3,311L730.6,333.3z M477.1,586.6L677,361.8l-50.9-4l-155-12.1
				l-76.3,86.5L380.1,449l-27.5,31.2l-54.9,62.3h0l-26.1,29.6l0,0L477.1,586.6L477.1,586.6z"/>
			<polygon class="st3" points="508,57.4 679.7,297.3 626,292.5 494.5,106.9 480.7,87.3 			"/>
			<polygon class="st3" points="677,361.8 477.1,586.6 477.1,586.6 453.1,553.8 468.3,536.5 626.1,357.9 			"/>
			<polygon class="st2" points="508,57.4 480.7,87.3 432.1,82.7 330,73.2 303.9,36.2 			"/>
			<polygon class="st2" points="480.7,87.3 494.5,106.9 494,107.3 416.7,196.4 402.6,176.4 			"/>
			<polygon class="st3" points="480.7,87.3 402.6,176.4 379.7,143.8 432.1,83.6 432.1,82.7 			"/>
			<polygon class="st4" points="477.1,586.6 477.1,586.6 477.1,586.6 			"/>
			<polygon class="st0" points="477.1,586.6 477.1,586.6 271.7,572.1 271.7,572.1 			"/>
			<polygon class="st1" points="453.1,553.8 477.1,586.6 271.7,572.1 297.8,542.5 402.5,550.1 			"/>
			<polygon class="st3" points="401.7,213.8 470.3,311 215.8,600 0,289.5 250.9,0 364.6,161.2 337,193 260.7,85.3 247.2,66.3
				50.9,292.3 219.7,536.4 234.9,518.9 315.8,426.3 342.8,395.3 342.8,395.3 358,377.9 418.7,308.3 374.2,245.5 			"/>
			<polygon class="st1" points="394.9,432.3 468.3,536.5 453.1,553.8 380.1,449 			"/>
			<polygon class="st3" points="380.1,449 453.1,553.8 402.5,550.1 352.7,480.2 			"/>
			<polygon class="st2" points="402.6,176.4 416.7,196.4 401.7,213.8 387.5,193.7 			"/>
			<polygon class="st3" points="379.7,143.8 402.6,176.4 387.5,193.7 364.6,161.2 			"/>
			<polygon class="st2" points="387.5,193.7 401.7,213.8 374.2,245.5 359.9,225.3 			"/>
			<polygon class="st3" points="364.6,161.2 387.5,193.7 359.9,225.3 337,193 			"/>
			<polygon class="st2" points="359.9,225.3 374.2,245.5 313.7,315.3 283.9,312.1 			"/>
			<polygon class="st3" points="337,193 359.9,225.3 283.9,312.1 261.5,279.8 			"/>
			<polygon class="st1" points="313.7,315.3 358,377.9 342.8,395.3 283.9,312.1 			"/>
			<polygon class="st3" points="342.8,395.3 342.8,395.3 315.8,426.3 258,343.4 283.9,312.1 			"/>
			<polygon class="st0" points="297.8,542.5 271.7,572.1 297.7,542.5 			"/>
			<polygon class="st1" points="261.5,279.8 283.9,312.1 79,295.5 104.3,266.3 104.3,266.3 			"/>
			<polygon class="st2" points="283.9,312.1 258,343.4 103.3,330.3 79,295.5 			"/>
			<polygon class="st2" points="247.2,66.3 260.7,85.3 104.3,266.3 104.3,266.3 79,295.5 50.9,292.3 			"/>
			<polygon class="st1" points="103.3,330.3 234.9,518.9 219.7,536.4 50.9,292.3 79,295.5 			"/>
		</g>
		<g>
		</g>
	</g>
</g>
</svg>
