<svg xmlns="http://www.w3.org/2000/svg" viewBox="0 0 730.6 618.73"><defs><style>.cls-1{fill:#45a29e;}.cls-2{fill:#b1fdf8;}.cls-3{fill:#66fcf1;}</style></defs><title>Asset 1ImpCube</title><g id="Layer_2" data-name="Layer 2"><g id="Layer_1-2" data-name="Layer 1"><path class="cls-1" d="M298,542.74l-26.07,29.58,205.41,14.5L677.21,362.07l-50.85-4-155-12.06L395.1,432.56l-14.7,16.67-27.47,31.18ZM730.85,333.57,478.27,619,216,600.2,470.57,311.3Z" transform="translate(-0.25 -0.25)"/><polygon class="cls-2" points="676.96 361.82 477.08 586.58 453.07 553.75 468.32 536.48 626.11 357.87 676.96 361.82"/><polygon class="cls-3" points="477.08 586.58 271.67 572.08 297.74 542.49 402.55 550.09 453.07 553.75 477.08 586.58"/><polygon class="cls-3" points="468.32 536.48 453.07 553.75 380.15 448.99 394.85 432.31 468.32 536.48"/><polygon class="cls-2" points="453.07 553.75 402.55 550.09 352.68 480.16 380.15 448.99 453.07 553.75"/><polygon class="cls-3" points="329.97 73.16 379.69 143.83 364.59 161.19 250.85 0 511.9 26.24 730.6 333.33 470.32 311.05 401.67 213.76 416.7 196.42 474.65 278.79 626.03 292.45 679.65 297.29 508.01 57.36 303.94 36.16 329.97 73.16"/><polygon class="cls-2" points="679.65 297.29 626.03 292.45 494.54 106.86 480.66 87.28 508.01 57.36 679.65 297.29"/><polygon class="cls-2" points="470.32 311.05 215.75 599.95 0 289.51 250.85 0 364.59 161.19 336.95 192.97 260.67 85.32 247.18 66.28 50.89 292.34 219.71 536.36 234.91 518.94 315.76 426.29 342.78 395.34 357.99 377.91 418.71 308.34 374.17 245.49 401.67 213.76 470.32 311.05"/><polygon class="cls-3" points="234.91 518.94 219.71 536.36 50.89 292.34 79.03 295.51 103.26 330.25 234.91 518.94"/><polygon class="cls-2" points="342.78 395.34 315.76 426.29 257.96 343.42 283.87 312.07 342.78 395.33 342.78 395.34"/><polygon class="cls-3" points="357.99 377.91 342.78 395.34 342.78 395.33 283.87 312.07 313.68 315.27 357.99 377.91"/><polygon class="cls-1" points="374.17 245.49 313.68 315.27 283.87 312.07 359.85 225.28 374.17 245.49"/><polygon class="cls-1" points="283.87 312.07 257.96 343.42 103.26 330.25 79.03 295.51 283.87 312.07"/><polygon class="cls-2" points="359.85 225.28 283.87 312.07 261.45 279.75 336.95 192.97 359.85 225.28"/><polygon class="cls-3" points="283.87 312.07 79.03 295.51 104.29 266.27 104.3 266.27 261.45 279.75 283.87 312.07"/><polygon class="cls-1" points="401.67 213.76 374.17 245.49 359.85 225.28 387.51 193.68 401.67 213.76"/><polygon class="cls-1" points="416.7 196.42 401.67 213.76 387.51 193.68 402.62 176.41 416.7 196.42"/><polygon class="cls-1" points="493.98 107.26 416.7 196.42 402.62 176.41 480.66 87.28 494.54 106.86 493.98 107.26"/><polygon class="cls-2" points="387.51 193.68 359.85 225.28 336.95 192.97 364.59 161.19 387.51 193.68"/><polygon class="cls-2" points="402.62 176.41 387.51 193.68 364.59 161.19 379.69 143.83 402.62 176.41"/><polygon class="cls-2" points="480.66 87.28 402.62 176.41 379.69 143.83 432.06 83.63 432.14 82.73 480.66 87.28"/><polygon class="cls-1" points="508.01 57.36 480.66 87.28 432.14 82.73 329.97 73.16 303.94 36.16 508.01 57.36"/><polygon class="cls-1" points="104.29 266.27 79.03 295.51 50.89 292.34 247.18 66.28 260.67 85.32 104.3 266.27 104.29 266.27"/></g></g></svg>