<?xml version="1.0" encoding="utf-8"?>
<!-- Generator: Adobe Illustrator 22.0.0, SVG Export Plug-In . SVG Version: 6.00 Build 0)  -->
<svg version="1.1" id="Layer_1" xmlns="http://www.w3.org/2000/svg" xmlns:xlink="http://www.w3.org/1999/xlink" x="0px" y="0px"
	 viewBox="0 0 100 100" style="enable-background:new 0 0 100 100;" xml:space="preserve">
<style type="text/css">
	.st0{fill:none;}
	.st1{fill:#C3073F;}
	.st2{fill:none;stroke:#C3073F;stroke-width:4;stroke-miterlimit:10;}
	.st3{fill:none;stroke:#66FCF1;stroke-width:4;stroke-miterlimit:10;}
</style>
<title>Asset 1Quest</title>
<circle class="st0" cx="50" cy="50" r="48"/>
<path class="st1" d="M50,4c25.4,0,46,20.6,46,46S75.4,96,50,96S4,75.4,4,50C4,24.6,24.6,4,50,4 M50,0C22.4,0,0,22.4,0,50
	s22.4,50,50,50s50-22.4,50-50S77.6,0,50,0z"/>
<line class="st2" x1="50" y1="98" x2="100" y2="98"/>
<path class="st2" d="M11,50c0,21.5,17.5,39,39,39"/>
<path class="st2" d="M88,50c0,21.6-17,39-38,39"/>
<path class="st2" d="M22,50c0,15.5,12.5,28,28,28"/>
<path class="st2" d="M78,50c0,15.5-12.5,28-28,28"/>
<line class="st2" x1="50" y1="78" x2="50" y2="50"/>
<path class="st2" d="M17,50c0-17.7,14.8-32,33-32"/>
<path class="st2" d="M83,50c0-17.7-14.8-32-33-32"/>
<line class="st2" x1="50" y1="18" x2="50" y2="38"/>
<line class="st3" x1="50" y1="37" x2="50" y2="37"/>
<path class="st2" d="M64,52c0-7.7-7.2-14-16-14"/>
<path class="st2" d="M36,36c0,8.3,7.2,15,16,15"/>
</svg>
